<svg version="1.2" xmlns="http://www.w3.org/2000/svg" viewBox="0 0 1695 819" width="1695" height="819">
	<title>Runwey Logo design black bg (1)-ai</title>
	<style>
		.s0 { fill: #ffffff } 
	</style>
	<g id="Layer 1">
		<path id="&lt;Compound Path&gt;" fill-rule="evenodd" className="s0" d="m236.9 681.3l81.1 112.7h-41.2l-77.4-109.7c-10 0.3-19.3 0.3-27.3 0.3v109.4h-36.6v-209.1c0-15.3-10.9-30.2-29.5-32.6v-1.6h66.1c38.2 0 115.3-1 115.3 68.1 0 38.9-23.6 55.5-50.5 62.5zm-0.3-23.6c2.3-2.7 4.6-6 6-9.3 2-4 3.3-8.3 4.3-12.6 1-5.4 1.3-11.3 1.3-17-1.6-52.8-42.5-56.5-49.8-56.5h-26.3v109.4h26.3q6.4 0 12.9-1c6.3-1 12.6-3 18-6.4 2.6-2 5-3.9 7.3-6.6z"/>
		<path id="&lt;Path&gt;" className="s0" d="m522.8 715.5c0 61.2-57.2 68.8-76.5 68.8 0 0-61.8 4.4-61.8-68.8v-164.8h-66.2v1.6c20.3 5.7 29.6 18 29.6 32.3v130.9c0 88.1 95.1 83.5 95.1 83.5 92.1 0 94.7-68.5 94.7-83.5v-164.8h-14.9z"/>
		<path id="&lt;Path&gt;" className="s0" d="m764.1 724.5l-157.6-152.9c-8.3-7-24.2-20.9-48.5-20.9v1.6c26.3 7.7 28.9 35.3 28.9 54.2v187.5h15v-173.9l177.1 173.9v-243.3h-14.9z"/>
		<path id="&lt;Path&gt;" className="s0" d="m1037 723.8l-59.9-173.1-60.1 175.8-56.5-155.6v-0.3c-4.7-12-16-19.9-28.6-19.9h-32.6v1.6l7.7 2c3.9 1 7.9 3.3 10.9 6 3 3 5.7 6.3 7 10.3v0.3l83.1 228.1 57.8-169.2 58.9 169.2 93.4-248.3h-16.3z"/>
		<path id="&lt;Path&gt;" className="s0" d="m1144.7 552.3c20.2 5.7 29.5 18 29.5 32.3v209.4h153.3v-12.7h-116.7v-106.7h97.4v-14.9h-97.4v-96.4h116.7v-12.6h-182.8z"/>
		<path id="&lt;Path&gt;" className="s0" d="m1572.4 550.7l-77.1 121.3c0 0-68.1-102.4-68.5-102.7-8.6-11.7-22.2-18.6-36.5-18.6h-36.2v1.6l5.9 1.4c4.7 1.3 9.3 3.6 13.3 6.3 4 3 7.7 6.6 10.3 10.6l82.1 122.7v100.7h36.6v-105.1l87.7-138.2z"/>
		<path id="&lt;Path&gt;" className="s0" d="m1349.8 340.9h-1003.6l-86.8 86.8h1177.2z"/>
		<path id="&lt;Path&gt;" className="s0" d="m1029.9 21h-363.8l-262.2 262.3h888.2z"/>
	</g>
</svg>